<svg id="Layer_1" data-name="Layer 1" xmlns="http://www.w3.org/2000/svg" viewBox="0 0 1000 1000"><defs><style>.cls-1{fill:#d1d3d4;}</style></defs><path class="cls-1" d="M314.39,452.62a196.15,196.15,0,0,0-8.07,56.72c0,78.39,36.2,131.89,99.38,170.16,1.84-5.53,2.07-13.14,1.15-21.21-5.54-46.35-39.2-62.26-67.1-99.15-30.2-39.66-27.44-90.15-25.36-106.52m110-124.51c-57.64,22.36-86.23,81.62-85.31,135.34C340.21,532.16,406.39,581.05,420,626c6.69,21.9,6.23,36.66-2.07,59.49,7.84,4.61,25.82,10.37,25.82,10.37,10.15-16.37,14.07-36.2,15-53.49,5.07-90.39-140-146.65-68.48-278.3,5.07-9.69,20.29-27.44,34.12-36M527,492.28c12.45,28.59,29,49.57,31.12,91.76,2.54,47.73-21.9,90.16-53,120.13,0,0,49.11.69,97.07-29.51,58.11-36.66,91.54-84.39,91.54-154.95,0-6-.46-14.52-1.38-27.43H527M506,295.83c-59.48,19.83-94.76,63.64-97.3,125.2-3.69,87.62,83.7,124.74,74.71,210.74C480.86,656.9,468,686,459,699.79A149.37,149.37,0,0,0,488,703.94c7.38-9.68,34.36-44.5,36.2-91.77,2.54-65.48-60.64-124.28-71.48-175.69-20.06-93.62,42.43-134,53.26-140.65"/></svg>